<?xml version="1.0" standalone="no"?>
<!DOCTYPE svg PUBLIC "-//W3C//DTD SVG 20010904//EN"
 "http://www.w3.org/TR/2001/REC-SVG-20010904/DTD/svg10.dtd">
<svg version="1.0" xmlns="http://www.w3.org/2000/svg"
 width="500.000000pt" height="500.000000pt" viewBox="0 0 500.000000 500.000000"
 preserveAspectRatio="xMidYMid meet">
<metadata>
Created by potrace 1.14, written by Peter Selinger 2001-2017
</metadata>
<g transform="translate(0.000000,500.000000) scale(0.100000,-0.100000)"
fill="#000000" stroke="none">
<path d="M2114 3079 c-183 -17 -356 -68 -574 -169 -80 -37 -166 -72 -193 -78
-55 -11 -159 -8 -212 7 -36 10 -37 9 -53 -27 -12 -26 -17 -65 -17 -132 0 -84
3 -101 27 -145 42 -77 43 -77 43 -6 0 57 4 74 28 109 40 61 63 72 158 76 46 2
98 7 114 11 89 21 170 51 298 109 161 74 249 100 395 119 131 17 325 14 438
-7 10 -2 39 -7 64 -11 71 -11 272 -62 335 -86 31 -11 59 -19 62 -16 8 8 -79
61 -182 112 -95 46 -244 99 -309 109 -21 4 -42 8 -46 11 -21 13 -280 22 -376
14z"/>
<path d="M3170 2733 c-103 -38 -276 -78 -380 -87 -71 -7 -323 -9 -355 -2 -11
2 -47 7 -80 10 -33 4 -76 9 -95 12 -43 5 -228 46 -329 73 -93 25 -82 15 43
-38 225 -96 409 -130 676 -126 102 2 205 6 230 10 25 4 110 18 190 32 421 71
536 66 791 -37 l74 -30 -30 26 c-98 83 -250 152 -375 169 -25 3 -52 8 -60 10
-8 3 -58 7 -110 9 -89 4 -101 2 -190 -31z"/>
<path d="M1345 2406 c-2 -6 -9 -38 -16 -71 -7 -33 -14 -64 -15 -70 -1 -5 -5
-29 -9 -53 l-8 -43 74 3 c72 3 74 4 77 30 3 26 1 27 -36 23 -36 -3 -39 -2 -34
21 4 20 10 24 42 24 30 0 39 4 43 22 8 30 2 36 -33 33 -24 -2 -30 1 -30 16 0
11 7 19 18 20 9 1 28 2 42 2 19 2 26 8 28 28 3 27 3 27 -68 26 -43 0 -73 -5
-75 -11z"/>
<path d="M1540 2417 c0 -2 -11 -55 -25 -117 -14 -62 -25 -117 -25 -122 0 -4
33 -8 74 -8 70 0 74 1 78 24 6 28 -4 35 -44 30 -34 -3 -34 2 -9 109 10 42 18
77 17 78 -5 4 -66 9 -66 6z"/>
<path d="M1700 2310 c-12 -58 -24 -113 -26 -122 -4 -15 1 -18 30 -18 20 0 36
2 36 5 0 3 11 57 25 121 14 64 25 117 25 119 0 1 -15 2 -34 2 l-34 -1 -22
-106z"/>
<path d="M1824 2403 c-2 -7 -6 -19 -8 -27 -3 -10 4 -16 22 -18 15 -2 26 -8 25
-14 -1 -7 -9 -45 -18 -85 -19 -95 -20 -91 18 -87 l32 3 19 93 c19 90 20 92 48
92 21 0 28 5 28 20 0 34 -3 35 -83 36 -58 1 -80 -3 -83 -13z"/>
<path d="M2034 2406 c-2 -6 -15 -62 -28 -123 l-24 -113 73 0 c66 0 74 2 80 21
9 26 0 34 -36 34 -16 0 -29 3 -29 8 0 4 0 14 0 22 0 11 11 15 40 15 41 0 40
-1 40 48 0 4 -16 7 -35 7 -19 0 -35 2 -35 5 1 17 20 30 50 32 37 2 50 12 50
40 0 14 -11 16 -71 15 -40 0 -73 -6 -75 -11z"/>
<path d="M2297 2413 c-3 -5 -3 -44 -1 -88 1 -44 3 -97 3 -117 1 -37 2 -38 39
-38 39 0 39 0 66 70 15 39 29 70 30 70 1 0 1 -31 1 -70 l-2 -70 41 0 41 0 29
68 c15 37 38 92 51 124 l23 56 -33 0 c-32 0 -34 -2 -60 -74 -15 -41 -30 -74
-34 -74 -4 0 -6 32 -6 70 1 65 0 71 -21 76 -32 8 -37 3 -69 -75 -15 -39 -31
-71 -34 -71 -4 0 -7 32 -6 72 0 70 -1 71 -27 75 -14 2 -29 0 -31 -4z"/>
<path d="M2644 2406 c-5 -14 -44 -215 -44 -227 0 -5 13 -9 30 -9 25 0 30 5 39
38 6 20 11 43 11 50 0 7 13 12 31 12 24 0 29 -4 25 -17 -2 -10 -7 -33 -11 -50
-6 -32 -6 -33 28 -33 l34 0 24 118 c26 123 24 137 -18 130 -21 -4 -31 -23 -32
-59 -1 -22 -7 -28 -31 -31 -31 -5 -31 -5 -28 41 3 44 2 46 -25 47 -16 1 -31
-4 -33 -10z"/>
<path d="M2895 2410 c-4 -7 -55 -224 -55 -237 0 -1 34 -3 75 -3 79 0 76 -2 75
48 0 4 -16 7 -36 6 -30 0 -34 3 -32 20 2 16 12 22 43 26 34 4 40 9 43 31 3 23
0 26 -29 25 -23 -1 -33 4 -35 17 -2 16 22 23 63 18 14 -2 38 38 28 47 -10 10
-134 12 -140 2z"/>
<path d="M3085 2401 c-10 -34 -45 -202 -45 -216 0 -13 12 -15 73 -13 66 3 72
5 75 26 2 12 -1 23 -7 23 -16 2 -49 6 -60 8 -5 0 -7 10 -4 21 4 16 14 20 43
20 30 0 39 4 43 22 7 26 -6 37 -39 33 -19 -2 -24 3 -24 20 0 18 4 22 20 18 37
-10 70 5 70 32 0 23 -2 24 -70 22 -54 -1 -71 -5 -75 -16z"/>
<path d="M3280 2416 c0 -1 -11 -54 -25 -116 -14 -62 -25 -117 -25 -122 0 -4
34 -8 75 -8 68 0 75 2 75 20 0 32 -3 35 -39 34 -36 0 -36 -2 -17 86 3 14 9 40
12 57 3 18 7 36 8 39 0 4 -14 8 -31 10 -18 2 -33 2 -33 0z"/>
<path d="M3466 2399 c-37 -29 -35 -75 4 -119 17 -18 30 -37 30 -42 0 -16 -29
-20 -60 -10 -29 11 -30 10 -30 -18 0 -22 6 -30 28 -37 43 -15 107 3 121 33 18
40 13 62 -24 102 -38 42 -33 68 10 52 25 -10 45 4 45 31 0 35 -83 40 -124 8z"/>
<path d="M2358 2045 c-3 -3 -221 -14 -277 -15 -19 0 -32 -3 -28 -6 22 -22
1128 -24 1184 -3 12 5 6 8 -22 9 -22 1 -56 4 -75 6 -37 4 -778 13 -782 9z"/>
</g>
</svg>
